#N canvas 388 95 737 431 12;
#X obj 121 16 inlet;
#X listbox 121 44 48 0 0 0 - - - 0;
#X obj 121 79 unpack 0 0 0 0 0 0 0 0, f 38;
#X obj 117 226 pack 0 0 0 0 0 0 0 0 0 0 0;
#X msg 117 258 \$1 \$2 \, \$3 \$4 \$5 \, \$6 \$7 \$8 \, \$9 \$10 \$11;
#X obj 372 164 +;
#X obj 414 193 +;
#X obj 117 295 vline~;
#X obj 119 339 outlet~;
#X connect 0 0 1 0;
#X connect 1 0 2 0;
#X connect 2 0 3 0;
#X connect 2 1 3 1;
#X connect 2 1 3 4;
#X connect 2 1 5 0;
#X connect 2 2 3 2;
#X connect 2 3 3 3;
#X connect 2 3 5 1;
#X connect 2 4 3 5;
#X connect 2 5 3 6;
#X connect 2 5 6 1;
#X connect 2 6 3 8;
#X connect 2 7 3 9;
#X connect 3 0 4 0;
#X connect 4 0 7 0;
#X connect 5 0 3 7;
#X connect 5 0 6 0;
#X connect 6 0 3 10;
#X connect 7 0 8 0;
