#N canvas 158 26 834 553 10;
#X obj 320 190 rfft~;
#X obj 595 213 tgl 15 0 empty empty empty 17 7 0 10 #fcfcfc #000000 #000000 0 1;
#N canvas 51 367 1153 478 (subpatch) 0;
#X array \$0-spectrum 128 float 1;
#A 0 0 0 0 0 0 0 0 0 0 0 0 0 0 0 0 0 0 0 0 0 0 0 0 0 0 0 0 0 0 0 0 0 0 0 0 0 0 0 0 0 0 0 0 0 0 0 0 0 0 0 0 0 0 0 0 0 0 0 0 0 0 0 0 0 0 0 0 0 0 0 0 0 0 0 0 0 0 0 0 0 0 0 0 0 0 0 0 0 0 0 0 0 0 0 0 0 0 0 0 0 0 0 0 0 0 0 0 0 0 0 0 0 0 0 0 0 0 0 0 0 0 0 0 0 0 0 0 0;
#X coords 0 256 127 0 200 140 1 0 0;
#X restore 46 389 graph;
#X obj 320 222 *~;
#X obj 347 222 *~;
#X obj 320 285 biquad~ 0 0 0 0 1;
#X obj 595 230 metro 50;
#X obj 320 266 q8_sqrt~;
#X obj 595 194 loadbang;
#X msg 525 243 \; pd dsp 1;
#X obj 320 171 inlet~;
#X obj 595 274 t b b b;
#X floatatom 613 373 5 0 0 0 - - - 0;
#X obj 113 264 array define \$0-buffer;
#X obj 319 344 tabwrite~ \$0-buffer;
#X obj 614 324 array max \$0-buffer;
#X obj 679 272 bng 17 250 50 0 empty empty empty 0 -9 0 10 #fcfcfc #000000 #000000;
#X obj 680 378 outlet;
#X obj 430 604 tabwrite \$0-spectrum;
#X obj 445 345 array get \$0-buffer;
#X obj 428 568 array set \$0-spectrum;
#X obj 445 374 avp_extras_listit;
#X obj 445 402 / 1;
#X obj 445 428 * 256;
#X obj 446 512 array set \$0-spectrum;
#X obj 444 480 list store;
#X msg 444 452 append \$1;
#X obj 499 320 t b b b;
#X obj 52 37 block~ 1024;
#X connect 0 0 3 0;
#X connect 0 0 3 1;
#X connect 0 1 4 0;
#X connect 0 1 4 1;
#X connect 1 0 6 0;
#X connect 3 0 7 0;
#X connect 4 0 7 0;
#X connect 5 0 14 0;
#X connect 6 0 11 0;
#X connect 6 0 16 0;
#X connect 7 0 5 0;
#X connect 8 0 1 0;
#X connect 8 0 9 0;
#X connect 10 0 0 0;
#X connect 11 0 27 0;
#X connect 11 1 15 0;
#X connect 11 2 14 0;
#X connect 12 0 22 1;
#X connect 15 0 12 0;
#X connect 15 0 17 0;
#X connect 19 0 21 0;
#X connect 21 0 22 0;
#X connect 22 0 23 0;
#X connect 23 0 26 0;
#X connect 25 0 24 0;
#X connect 26 0 25 0;
#X connect 27 0 25 0;
#X connect 27 1 19 0;
#X connect 27 2 25 1;
#X coords 0 -1 1 1 200 154 2 46 375;
