#N canvas 341 205 743 362 12;
#X obj 335 272 dac~ 1 2;
#X msg 397 161 start;
#X obj 335 215 readsf~ 2;
#X msg 254 161 open musica.wav;
#X msg 472 161 stop;
#X obj 267 38 tgl 19 0 empty empty empty 0 -10 0 12 #fcfcfc #000000 #000000 0 1;
#X obj 267 62 select 0 1;
#X obj 274 109 t b b;
#X text 11 13 Toca samples. Pode tocar ficheiros .wav Adicionar a pasta onde está o ficheiro de som em: File->preferences->path, f 33;
#X connect 1 0 2 0;
#X connect 2 0 0 0;
#X connect 2 0 0 1;
#X connect 3 0 2 0;
#X connect 4 0 2 0;
#X connect 5 0 6 0;
#X connect 6 0 4 0;
#X connect 6 1 7 0;
#X connect 7 0 1 0;
#X connect 7 1 3 0;
