#N canvas 52 52 577 340 12;
#X obj 277 62 metro 50;
#X obj 364 8 inlet~;
#X obj 277 9 loadbang;
#X msg 277 34 1;
#X msg 401 192 set \$1;
#X obj 401 141 bng 19 250 50 0 empty empty empty 17 7 0 10 #dfdfdf #000000 #000000;
#X text 423 140 comment;
#X obj 401 166 symbol \$0-scope;
#X obj 277 91 tabwrite~;
#N canvas 130 130 450 250 (subpatch) 0;
#X array \$0-scope 1024 float 0;
#X coords 0 1 1023 -1 200 140 1;
#X restore 11 17 graph;
#X obj 456 8 bng 19 250 50 0 empty empty empty 0 -10 0 12 #fcfcfc #000000 #000000;
#X connect 0 0 8 0;
#X connect 1 0 8 0;
#X connect 2 0 3 0;
#X connect 2 0 5 0;
#X connect 3 0 0 0;
#X connect 4 0 8 0;
#X connect 5 0 7 0;
#X connect 7 0 4 0;
#X connect 10 0 3 0;
#X connect 10 0 5 0;
#X coords 0 -1 1 1 220 170 2 5 0;
