#N canvas 38 32 1139 525 12;
#X obj 33 294 avp_extras_fm, f 48;
#X text 208 152 f modulação;
#X text 22 130 f carregadora;
#X obj 268 410 *~, f 12;
#X obj 529 305 avp_extras_adsr;
#X obj 366 101 bng 19 250 50 0 empty empty empty 0 -10 0 12 #fcfcfc #000000 #000000;
#X obj 33 195 line~;
#X obj 365 212 line~;
#X obj 212 209 line~;
#X text 375 159 indice de modulação;
#X text 552 138 envelope;
#X obj 753 172 noise~;
#X obj 817 159 line~;
#X text 41 40 Sons de explosao podem ser implementados com uma combinação de sínsteses e filtragem de ruido.;
#X obj 754 216 bob~, f 20;
#X obj 944 156 line~;
#X obj 268 350 *~;
#X obj 269 382 *~ 3;
#X text 911 216 <- resonant low pass;
#X msg 529 161 1 20 0.9 100 0.9 50 0 800;
#X msg 366 180 3 \, 0.5 700;
#X msg 213 177 30 \, 20 700;
#X msg 34 163 100 \, 9 700;
#X msg 819 127 1200 \, 1500 700;
#X msg 945 124 2 \, 1 700;
#X obj 362 71 receive kill;
#X text 15 5 design_explosao;
#X obj 468 71 receive playerDead;
#X obj 268 434 send~ explosion_audio;
#X connect 0 0 16 0;
#X connect 3 0 28 0;
#X connect 4 0 3 1;
#X connect 5 0 22 0;
#X connect 5 0 19 0;
#X connect 5 0 23 0;
#X connect 5 0 21 0;
#X connect 5 0 20 0;
#X connect 5 0 24 0;
#X connect 6 0 0 0;
#X connect 7 0 0 2;
#X connect 8 0 0 1;
#X connect 11 0 14 0;
#X connect 12 0 14 1;
#X connect 14 0 16 1;
#X connect 15 0 14 2;
#X connect 16 0 17 0;
#X connect 17 0 3 0;
#X connect 19 0 4 0;
#X connect 20 0 7 0;
#X connect 21 0 8 0;
#X connect 22 0 6 0;
#X connect 23 0 12 0;
#X connect 24 0 15 0;
#X connect 25 0 5 0;
#X connect 27 0 5 0;
