#N canvas 387 81 772 492 12;
#X obj 11 14 netreceive -u -b -f 6666;
#X obj 11 49 oscparse;
#X listbox 11 73 69 0 0 0 - - - 0;
#X obj 11 101 list split 1;
#X listbox 51 130 20 0 0 0 - - - 0;
#X obj 277 135 array define ram;
#X obj 51 162 array set ram;
#X obj 26 293 array get ram;
#X obj 26 255 trigger f 1;
#X floatatom 26 222 5 0 0 0 - - - 0;
#X floatatom 26 325 5 0 0 0 - - - 0;
#X obj 514 73 bng 19 250 50 0 empty empty empty 0 -10 0 12 #fcfcfc #000000 #000000;
#X obj 446 109 send masterBang;
#X obj 27 192 receive masterBang;
#X obj 26 352 change;
#X floatatom 26 376 5 0 0 0 - - - 0;
#N canvas 130 130 450 367 tiro 0;
#X obj 28 116 array get ram;
#X obj 28 78 trigger f 1;
#X floatatom 27 142 5 0 0 0 - - - 0;
#X obj 29 15 receive masterBang;
#X msg 29 45 50;
#X obj 26 327 send tiro;
#X obj 27 173 trigger f f;
#X floatatom 26 251 5 0 0 0 - - - 0;
#X obj 26 203 <= 180;
#X obj 26 279 select 0;
#X obj 26 303 bng 19 250 50 0 empty empty empty 0 -10 0 12 #fcfcfc #000000 #000000;
#X obj 26 227 change;
#X connect 0 0 2 0;
#X connect 1 0 0 0;
#X connect 1 1 0 1;
#X connect 2 0 6 0;
#X connect 3 0 4 0;
#X connect 4 0 1 0;
#X connect 6 0 8 1;
#X connect 6 1 8 0;
#X connect 7 0 9 0;
#X connect 8 0 11 0;
#X connect 9 0 10 0;
#X connect 10 0 5 0;
#X connect 11 0 7 0;
#X restore 566 172 pd tiro;
#X obj 566 201 receive tiro;
#X obj 566 225 bng 19 250 50 0 empty empty empty 0 -10 0 12 #fcfcfc #000000 #000000;
#N canvas 243 113 450 429 speed 0;
#X obj 24 114 array get ram;
#X obj 24 76 trigger f 1;
#X floatatom 24 146 5 0 0 0 - - - 0;
#X obj 25 13 receive masterBang;
#X obj 24 173 change;
#X floatatom 24 197 5 0 0 0 - - - 0;
#X msg 25 47 53;
#X floatatom 24 253 5 0 0 0 - - - 0;
#X obj 24 285 send speed;
#X obj 24 220 / 254;
#X connect 0 0 2 0;
#X connect 1 0 0 0;
#X connect 1 1 0 1;
#X connect 2 0 4 0;
#X connect 3 0 6 0;
#X connect 4 0 5 0;
#X connect 5 0 9 0;
#X connect 6 0 1 0;
#X connect 7 0 8 0;
#X connect 9 0 7 0;
#X restore 629 172 pd speed;
#X obj 662 201 receive speed;
#X floatatom 662 225 5 0 0 0 - - - 0;
#X obj 172 294 array get ram;
#X obj 172 256 trigger f 1;
#X floatatom 172 223 5 0 0 0 - - - 0;
#X floatatom 172 326 5 0 0 0 - - - 0;
#X obj 173 193 receive masterBang;
#X obj 172 353 change;
#X floatatom 172 377 5 0 0 0 - - - 0;
#X obj 565 320 bng 19 250 50 0 empty empty empty 0 -10 0 12 #fcfcfc #000000 #000000;
#X obj 26 399 print;
#X obj 364 266 array size ram;
#X floatatom 364 290 5 0 0 0 - - - 0;
#X obj 411 236 bng 19 250 50 0 empty empty empty 0 -10 0 12 #fcfcfc #000000 #000000;
#X msg 364 235 128;
#X obj 363 206 loadbang;
#N canvas 52 52 450 300 playerDead 0;
#X obj 32 118 array get ram;
#X obj 32 80 trigger f 1;
#X floatatom 32 150 5 0 0 0 - - - 0;
#X obj 33 17 receive masterBang;
#X obj 32 177 change;
#X floatatom 32 201 5 0 0 0 - - - 0;
#X msg 33 41 100;
#X obj 32 224 select 0;
#X obj 32 248 bng 19 250 50 0 empty empty empty 0 -10 0 12 #fcfcfc #000000 #000000;
#X obj 32 272 send playerDead;
#X connect 0 0 2 0;
#X connect 1 0 0 0;
#X connect 1 1 0 1;
#X connect 2 0 4 0;
#X connect 3 0 6 0;
#X connect 4 0 5 0;
#X connect 5 0 7 0;
#X connect 6 0 1 0;
#X connect 7 0 8 0;
#X connect 8 0 9 0;
#X restore 565 353 pd playerDead;
#X obj 564 401 bng 19 250 50 0 empty empty empty 0 -10 0 12 #fcfcfc #000000 #000000;
#X obj 564 377 receive playerDead;
#N canvas 104 104 559 392 kill 0;
#X obj 31 115 array get ram;
#X obj 31 77 trigger f 1;
#X floatatom 31 147 5 0 0 0 - - - 0;
#X obj 32 14 receive masterBang;
#X obj 31 174 change;
#X floatatom 31 198 5 0 0 0 - - - 0;
#X obj 177 116 array get ram;
#X obj 177 78 trigger f 1;
#X floatatom 177 148 5 0 0 0 - - - 0;
#X obj 178 15 receive masterBang;
#X obj 177 175 change;
#X floatatom 177 199 5 0 0 0 - - - 0;
#X obj 113 246 bng 19 250 50 0 empty empty empty 0 -10 0 12 #fcfcfc #000000 #000000;
#X msg 32 38 83;
#X msg 178 39 85;
#X obj 113 277 send kill;
#X connect 0 0 2 0;
#X connect 1 0 0 0;
#X connect 1 1 0 1;
#X connect 2 0 4 0;
#X connect 3 0 13 0;
#X connect 4 0 5 0;
#X connect 5 0 12 0;
#X connect 6 0 8 0;
#X connect 7 0 6 0;
#X connect 7 1 6 1;
#X connect 8 0 10 0;
#X connect 9 0 14 0;
#X connect 10 0 11 0;
#X connect 11 0 12 0;
#X connect 12 0 15 0;
#X connect 13 0 1 0;
#X connect 14 0 7 0;
#X restore 565 271 pd kill;
#X obj 565 296 receive kill;
#N canvas 19 311 450 300 fuelTank 1;
#X obj 27 118 array get ram;
#X obj 27 80 trigger f 1;
#X floatatom 27 150 5 0 0 0 - - - 0;
#X obj 28 17 receive masterBang;
#X obj 27 177 change;
#X floatatom 27 201 5 0 0 0 - - - 0;
#X msg 28 41 55;
#X obj 239 222 send fuelTrigger;
#X obj 27 239 send fuelTank;
#X obj 237 38 t f f;
#X obj 239 101 -;
#X obj 239 125 > 0;
#X obj 239 149 select 1;
#X obj 270 182 bng 19 250 50 0 empty empty empty 0 -10 0 12 #fcfcfc #000000 #000000;
#X connect 0 0 2 0;
#X connect 1 0 0 0;
#X connect 1 1 0 1;
#X connect 2 0 4 0;
#X connect 3 0 6 0;
#X connect 4 0 5 0;
#X connect 5 0 8 0;
#X connect 5 0 9 0;
#X connect 6 0 1 0;
#X connect 9 0 10 1;
#X connect 9 1 10 0;
#X connect 10 0 11 0;
#X connect 11 0 12 0;
#X connect 12 0 7 0;
#X connect 12 0 13 0;
#X restore 432 358 pd fuelTank;
#X floatatom 430 409 5 0 0 0 - - - 0;
#X obj 430 385 receive fuelTank;
#X obj 289 409 bng 19 250 50 0 empty empty empty 0 -10 0 12 #fcfcfc #000000 #000000;
#X obj 289 385 receive fuelTrigger;
#X connect 0 0 1 0;
#X connect 0 0 11 0;
#X connect 1 0 2 0;
#X connect 2 0 3 0;
#X connect 3 1 4 0;
#X connect 4 0 6 0;
#X connect 7 0 10 0;
#X connect 8 0 7 0;
#X connect 8 1 7 1;
#X connect 9 0 8 0;
#X connect 10 0 14 0;
#X connect 11 0 12 0;
#X connect 13 0 9 0;
#X connect 14 0 15 0;
#X connect 15 0 30 0;
#X connect 17 0 18 0;
#X connect 20 0 21 0;
#X connect 22 0 25 0;
#X connect 23 0 22 0;
#X connect 23 1 22 1;
#X connect 24 0 23 0;
#X connect 25 0 27 0;
#X connect 26 0 24 0;
#X connect 27 0 28 0;
#X connect 31 0 32 0;
#X connect 33 0 31 0;
#X connect 34 0 31 0;
#X connect 35 0 34 0;
#X connect 38 0 37 0;
#X connect 40 0 29 0;
#X connect 43 0 42 0;
#X connect 45 0 44 0;
