#N canvas 117 70 873 501 12;
#X obj 99 298 avp_extras_fm, f 48;
#X text 274 156 f modulação;
#X text 88 134 f carregadora;
#X obj 355 362 *~, f 12;
#X obj 626 291 avp_extras_adsr;
#X obj 432 105 bng 19 250 50 0 empty empty empty 0 -10 0 12 #fcfcfc #000000 #000000;
#X text 34 43 Em videojogos clássicos \, o som de tiro é usualmente implementado com FM \, utilizndo uma rampa decrescente para controlar a frequência central.;
#X obj 99 199 line~;
#X obj 431 219 line~;
#X obj 278 213 line~;
#X text 441 163 indice de modulação;
#X text 649 145 envelope;
#X msg 432 187 1 \, 0.5 120;
#X msg 626 168 1 20 0.8 20 0.9 50 0 100;
#X msg 100 167 1200 \, 60 200;
#X msg 279 181 80 \, 40 200;
#X obj 495 71 receive tiro;
#X obj 355 386 send~ tiro_audio;
#X text 14 8 design_tiro;
#X connect 0 0 3 0;
#X connect 3 0 17 0;
#X connect 4 0 3 1;
#X connect 5 0 14 0;
#X connect 5 0 12 0;
#X connect 5 0 13 0;
#X connect 5 0 15 0;
#X connect 7 0 0 0;
#X connect 8 0 0 2;
#X connect 9 0 0 1;
#X connect 12 0 8 0;
#X connect 13 0 4 0;
#X connect 14 0 7 0;
#X connect 15 0 9 0;
#X connect 16 0 5 0;
