#N canvas 58 13 981 551 12;
#X text 43 49 Podemos usar um sequenciado \, aleatoriedade e síntese para gerar música procedural.;
#X obj 138 136 metro 100;
#X obj 138 105 tgl 19 0 empty empty empty 0 -10 0 12 #fcfcfc #000000 #000000 0 1;
#X floatatom 370 90 5 0 0 0 - - - 0;
#X obj 297 123 /;
#X floatatom 297 150 5 0 0 0 - - - 0;
#X obj 138 164 bng 19 250 50 0 empty empty empty 0 -10 0 12 #fcfcfc #000000 #000000;
#X listbox 555 106 33 0 0 0 - - - 0;
#X obj 555 155 array set \$0-escala;
#X obj 138 230 array get \$0-escala 0 1;
#X floatatom 138 261 5 0 0 0 - - - 0;
#X msg 296 92 60000;
#X obj 734 152 array define \$0-escala;
#X obj 59 379 mtof;
#X floatatom 59 357 5 0 0 0 - - - 0;
#X floatatom 59 406 5 0 0 0 - - - 0;
#X obj 59 644 *~ 0, f 12;
#X obj 305 355 noise~;
#X obj 77 514 avp_extras_adsr;
#X obj 59 590 *~;
#X obj 305 443 bp~, f 15;
#X obj 161 550 *~, f 17;
#X floatatom 407 411 5 0 0 0 - - - 0;
#X obj 162 589 hsl 162 19 0 127 0 0 empty empty empty -2 -10 0 12 #fcfcfc #000000 #000000 0 1;
#X obj 160 619 / 127;
#X floatatom 160 646 5 0 0 0 - - - 0;
#X obj 297 525 avp_extras_adsr;
#X obj 215 320 bng 19 250 50 0 empty empty empty 0 -10 0 12 #fcfcfc #000000 #000000;
#X text 420 445 <- filtro "band pass";
#X text 454 412 <- largura "Q";
#X floatatom 356 402 5 0 0 0 - - - 0;
#X text 400 386 <- f central;
#X obj 138 195 random 8;
#X msg 555 64 12 14 16 17 19 21 23 24;
#X obj 59 440 avp_extras_fm;
#X obj 114 403 sig~;
#X floatatom 117 370 5 0 0 0 - - - 0;
#X obj 181 407 sig~;
#X floatatom 184 374 5 0 0 0 - - - 0;
#X obj 780 251 loadbang;
#X msg 782 299 114;
#X msg 828 302 0.2;
#X msg 875 302 227;
#X msg 915 301 45;
#X obj 334 231 random 2;
#X floatatom 387 195 5 1 8 0 - - - 0;
#X msg 235 265 12;
#X obj 245 306 *;
#X obj 97 307 +;
#X msg 522 30 12 13 14 15 16 17 18 19, f 26;
#X msg 297 494 1 10 1 0 1 0 0 80, f 32;
#X msg 738 64 9 12 14 15 16 19 21 24;
#X msg 77 477 1 20 0.8 20 0.6 80 0 60, f 28;
#X obj 335 261 t b f;
#X obj 370 119 t b f;
#X obj 441 116 receive speed;
#X floatatom 441 140 5 0 0 0 - - - 0;
#X obj 441 163 * 30;
#X obj 441 187 + 300;
#X text 12 10 design_bgMusic;
#X msg 696 281 1;
#X msg 738 370 5;
#X msg 814 394 127;
#X obj 59 668 send~ bgMusic_audio;
#X connect 1 0 6 0;
#X connect 2 0 1 0;
#X connect 3 0 54 0;
#X connect 4 0 5 0;
#X connect 5 0 1 1;
#X connect 6 0 32 0;
#X connect 6 0 44 0;
#X connect 7 0 8 0;
#X connect 9 0 10 0;
#X connect 10 0 27 0;
#X connect 10 0 48 0;
#X connect 11 0 4 0;
#X connect 13 0 15 0;
#X connect 14 0 13 0;
#X connect 15 0 34 0;
#X connect 15 0 30 0;
#X connect 16 0 63 0;
#X connect 17 0 20 0;
#X connect 18 0 19 1;
#X connect 19 0 16 0;
#X connect 20 0 21 0;
#X connect 21 0 16 0;
#X connect 22 0 20 2;
#X connect 23 0 24 0;
#X connect 24 0 25 0;
#X connect 25 0 16 1;
#X connect 26 0 21 1;
#X connect 27 0 52 0;
#X connect 27 0 50 0;
#X connect 30 0 20 1;
#X connect 32 0 9 0;
#X connect 33 0 7 0;
#X connect 34 0 19 0;
#X connect 35 0 34 1;
#X connect 36 0 35 0;
#X connect 37 0 34 2;
#X connect 38 0 37 0;
#X connect 39 0 40 0;
#X connect 39 0 41 0;
#X connect 39 0 42 0;
#X connect 39 0 43 0;
#X connect 39 0 60 0;
#X connect 39 0 61 0;
#X connect 39 0 33 0;
#X connect 39 0 62 0;
#X connect 40 0 36 0;
#X connect 41 0 38 0;
#X connect 42 0 30 0;
#X connect 43 0 22 0;
#X connect 44 0 53 0;
#X connect 45 0 44 1;
#X connect 46 0 47 0;
#X connect 47 0 48 1;
#X connect 48 0 14 0;
#X connect 49 0 7 0;
#X connect 50 0 26 0;
#X connect 51 0 7 0;
#X connect 52 0 18 0;
#X connect 53 0 46 0;
#X connect 53 1 47 1;
#X connect 54 0 11 0;
#X connect 54 1 4 1;
#X connect 55 0 56 0;
#X connect 56 0 57 0;
#X connect 57 0 58 0;
#X connect 58 0 3 0;
#X connect 60 0 2 0;
#X connect 61 0 45 0;
#X connect 62 0 23 0;
