#N canvas 285 52 1280 637 12;
#X obj 60 305 receive~ tiro_audio;
#X obj 9 32 vsl 19 162 0 1 0 0 empty empty empty 0 -9 0 12 #fcfcfc #000000 #000000 0 1;
#X obj 60 347 *~ 0;
#X floatatom 9 204 5 0 0 0 - - - 0;
#X obj 7 254 line 0 10;
#X msg 8 227 \$1 100;
#X obj 61 443 dac~ 1 2;
#X text 4 6 tiro;
#X obj 57 32 vsl 19 162 0 1 0 0 empty empty empty 0 -9 0 12 #fcfcfc #000000 #000000 0 1;
#X obj 380 394 *~ 0;
#X floatatom 329 251 5 0 0 0 - - - 0;
#X obj 327 301 line 0 10;
#X msg 328 274 \$1 100;
#X obj 102 32 vsl 19 162 0 1 0 0 empty empty empty 0 -9 0 12 #fcfcfc #000000 #000000 0 1;
#X obj 578 388 *~ 0;
#X floatatom 527 245 5 0 0 0 - - - 0;
#X obj 525 295 line 0 10;
#X msg 526 268 \$1 100;
#X text 97 6 speed;
#X obj 146 33 vsl 19 162 0 1 0 0 empty empty empty 0 -9 0 12 #fcfcfc #000000 #000000 0 1;
#X obj 739 378 *~ 0;
#X floatatom 688 235 5 0 0 0 - - - 0;
#X obj 686 285 line 0 10;
#X msg 687 258 \$1 100;
#X text 141 7 fuel;
#X obj 186 32 vsl 19 162 0 1 0 0 empty empty empty 0 -9 0 12 #fcfcfc #000000 #000000 0 1;
#X obj 959 392 *~ 0;
#X floatatom 908 249 5 0 0 0 - - - 0;
#X obj 906 299 line 0 10;
#X msg 907 272 \$1 100;
#X text 181 6 bgMusic;
#X msg 540 125 \; pd dsp \$1;
#X obj 255 17 tgl 19 0 empty empty empty 17 7 0 10 #dfdfdf #000000 #000000 0 1;
#X obj 250 98 vu 19 80 empty empty -1 -10 0 12 #404040 #000000 1 0;
#N canvas 329 161 625 417 vu 0;
#X obj 59 129 env~ 1024;
#X obj 161 111 abs~;
#X obj 161 213 snapshot~;
#X obj 161 256 rmstodb;
#X obj 161 21 inlet~;
#X obj 161 288 - 100;
#X obj 59 287 - 100;
#X obj 59 361 outlet;
#X obj 161 361 outlet;
#X text 344 307 Check the help file of env~ and slop~ for more details., f 31;
#X obj 239 89 expr 1000 / $f1;
#X floatatom 239 117 5 0 0 0 - - - 0;
#X obj 161 146 slop~ 0 0 0 0 1e+09;
#X obj 239 18 inlet;
#X floatatom 239 57 5 0 0 0 - - - 0;
#X text 359 89 convert to hz;
#X text 282 118 hz;
#X text 284 57 peak decay time in ms;
#X obj 59 171 t f b;
#X text 345 132 The env~ object is dedicated to RMS analysis. Its output is in dB (0-100 range \, pd style) but needs to be converted to dBFS (and we do that by simply subtracting 100)., f 31;
#X text 345 225 The slop~ object is used here for peak detection. We need to convert the output to dB with rmstodb and also subtract by 100 to convert it to dBFS., f 31;
#X connect 0 0 18 0;
#X connect 1 0 12 0;
#X connect 2 0 3 0;
#X connect 3 0 5 0;
#X connect 4 0 0 0;
#X connect 4 0 1 0;
#X connect 5 0 8 0;
#X connect 6 0 7 0;
#X connect 10 0 11 0;
#X connect 11 0 12 3;
#X connect 12 0 2 0;
#X connect 13 0 14 0;
#X connect 14 0 10 0;
#X connect 18 0 6 0;
#X connect 18 1 2 0;
#X restore 289 468 pd vu;
#X obj 380 352 receive~ explosion_audio;
#X obj 578 346 receive~ speed_audio;
#X obj 739 336 receive~ fuel_audio;
#X obj 959 350 receive~ bgMusic_audio;
#X obj 399 467 loadbang;
#X msg 399 491 300;
#X text 223 54 audio on/off;
#X text 52 6 expl;
#X connect 0 0 2 0;
#X connect 1 0 3 0;
#X connect 2 0 6 0;
#X connect 2 0 6 1;
#X connect 2 0 34 0;
#X connect 3 0 5 0;
#X connect 4 0 2 1;
#X connect 5 0 4 0;
#X connect 8 0 10 0;
#X connect 9 0 6 0;
#X connect 9 0 6 1;
#X connect 9 0 34 0;
#X connect 10 0 12 0;
#X connect 11 0 9 1;
#X connect 12 0 11 0;
#X connect 13 0 15 0;
#X connect 14 0 6 1;
#X connect 14 0 6 0;
#X connect 14 0 34 0;
#X connect 15 0 17 0;
#X connect 16 0 14 1;
#X connect 17 0 16 0;
#X connect 19 0 21 0;
#X connect 20 0 6 1;
#X connect 20 0 6 0;
#X connect 20 0 34 0;
#X connect 21 0 23 0;
#X connect 22 0 20 1;
#X connect 23 0 22 0;
#X connect 25 0 27 0;
#X connect 26 0 6 1;
#X connect 26 0 6 0;
#X connect 26 0 34 0;
#X connect 27 0 29 0;
#X connect 28 0 26 1;
#X connect 29 0 28 0;
#X connect 32 0 31 0;
#X connect 34 0 33 0;
#X connect 34 1 33 1;
#X connect 35 0 9 0;
#X connect 36 0 14 0;
#X connect 37 0 20 0;
#X connect 38 0 26 0;
#X connect 39 0 40 0;
#X connect 40 0 34 1;
#X coords 0 0 1 1 330 200 2 0 0;
