#N canvas 3581 96 712 527 12;
#X text 15 -1 RiverRaid sound design main patch;
#X obj 16 32 riverRaid_oscTriggers;
#X obj 16 73 receive tiro;
#X obj 16 97 bng 19 250 50 0 empty empty empty 0 -10 0 12 #fcfcfc #000000 #000000;
#X obj 112 73 receive speed;
#X floatatom 112 97 5 0 0 0 - - - 0;
#X obj 16 147 bng 19 250 50 0 empty empty empty 0 -10 0 12 #fcfcfc #000000 #000000;
#X obj 15 197 bng 19 250 50 0 empty empty empty 0 -10 0 12 #fcfcfc #000000 #000000;
#X obj 15 173 receive playerDead;
#X obj 242 185 riverRaid_mixer;
#X obj 16 252 riverRaid_tiro;
#X obj 16 283 riverRaid_explosion;
#X obj 16 123 receive kill;
#X obj 16 313 riverRaid_speed;
#X obj 17 343 riverRaid_bgMusic;
#X obj 18 370 riverRaid_fuel;
#X obj 218 73 receive fuelTrigger;
#X floatatom 363 97 5 0 0 0 - - - 0;
#X obj 363 73 receive fuelTank;
#X obj 218 97 bng 19 250 50 0 empty empty empty 0 -10 0 12 #fcfcfc #000000 #000000;
#X connect 2 0 3 0;
#X connect 4 0 5 0;
#X connect 8 0 7 0;
#X connect 12 0 6 0;
#X connect 16 0 19 0;
#X connect 18 0 17 0;
