#N canvas 179 86 1001 525 12;
#X obj 175 309 osc~ 100;
#X obj 85 165 hsl 162 19 0 254 0 0 empty empty empty -2 -10 0 12 #fcfcfc #000000 #000000 0 1;
#X obj 82 288 mtof;
#X floatatom 82 266 5 0 0 0 - - - 0;
#X floatatom 82 315 5 0 0 0 - - - 0;
#X obj 82 218 int;
#X text 83 139 f carregadora;
#X obj 176 339 *~, f 12;
#X obj 159 399 *~, f 12;
#X obj 159 423 send~ fuel_audio;
#X obj 556 175 loadbang;
#X obj 700 151 line 0 10;
#X obj 82 242 + 36;
#X obj 82 189 * 0.2;
#X obj 131 49 bng 19 250 50 0 empty empty empty 0 -10 0 12 #fcfcfc #000000 #000000;
#X obj 131 25 receive fuelTrigger;
#X floatatom 700 175 5 0 0 0 - - - 0;
#X msg 131 73 1;
#X floatatom 555 229 5 0 0 0 - - - 0;
#X obj 81 369 *~;
#X obj 81 346 osc~ 100;
#X msg 555 205 4;
#X obj 582 44 trigger b f f;
#X obj 272 142 line 0 20;
#X msg 272 107 0 \, 200 500;
#X obj 700 198 change;
#X floatatom 700 222 5 0 0 0 - - - 0;
#X obj 700 245 select 1;
#X msg 790 118 0 100;
#X obj 699 279 delay 500;
#X msg 702 114 \$1 50;
#X connect 0 0 7 0;
#X connect 1 0 13 0;
#X connect 2 0 4 0;
#X connect 3 0 2 0;
#X connect 4 0 20 0;
#X connect 5 0 12 0;
#X connect 7 0 19 1;
#X connect 8 0 9 0;
#X connect 10 0 21 0;
#X connect 11 0 8 1;
#X connect 11 0 16 0;
#X connect 12 0 3 0;
#X connect 13 0 5 0;
#X connect 14 0 17 0;
#X connect 15 0 14 0;
#X connect 16 0 25 0;
#X connect 17 0 22 0;
#X connect 18 0 0 0;
#X connect 19 0 8 0;
#X connect 20 0 19 0;
#X connect 21 0 18 0;
#X connect 22 0 24 0;
#X connect 22 1 30 0;
#X connect 23 0 1 0;
#X connect 24 0 23 0;
#X connect 25 0 26 0;
#X connect 26 0 27 0;
#X connect 27 0 29 0;
#X connect 28 0 11 0;
#X connect 29 0 28 0;
#X connect 30 0 11 0;
