#N canvas 52 55 854 448 12;
#X obj 99 298 avp_extras_fm, f 48;
#X obj 355 362 *~, f 12;
#X text 44 37 Sons contínuos(som do avião) que refletem velocidade \, podem ser implementados com o controle de frequencia e amplitude proporcional à velocidade., f 67;
#X text 276 156 comment;
#X obj 102 133 hsl 162 19 0 127 0 0 empty empty empty -2 -10 0 12 #fcfcfc #000000 #000000 0 1;
#X text 98 98 velocidade;
#X msg 99 236 \$1 150;
#X msg 258 237 \$1 150;
#X msg 424 237 \$1 150;
#X msg 468 298 \$1 150;
#X obj 99 263 line~;
#X obj 258 264 line~;
#X obj 424 264 line~;
#X obj 468 325 line~;
#X obj 258 203 expr 60 + 10*$f1/127;
#X obj 424 203 expr 0.1 + 3*$f1/127;
#X obj 250 81 receive speed;
#X obj 250 105 * 127;
#X obj 99 202 expr 10 + 50*$f1/127;
#X obj 468 269 expr 0.2 + 0.25*$f1/127;
#X text 22 10 design_velocidade;
#X obj 355 386 send~ speed_audio;
#X connect 0 0 1 0;
#X connect 1 0 21 0;
#X connect 4 0 14 0;
#X connect 4 0 15 0;
#X connect 4 0 18 0;
#X connect 4 0 19 0;
#X connect 6 0 10 0;
#X connect 7 0 11 0;
#X connect 8 0 12 0;
#X connect 9 0 13 0;
#X connect 10 0 0 0;
#X connect 11 0 0 1;
#X connect 12 0 0 2;
#X connect 13 0 1 1;
#X connect 14 0 7 0;
#X connect 15 0 8 0;
#X connect 16 0 17 0;
#X connect 17 0 4 0;
#X connect 18 0 6 0;
#X connect 19 0 9 0;
